<svg id="svg" xmlns="http://www.w3.org/2000/svg" xmlns:xlink="http://www.w3.org/1999/xlink" width="400" height="400" viewBox="0, 0, 400,400"><g id="svgg"><path id="path0" d="M93.500 33.538 C 53.619 34.813,37.571 47.959,33.935 82.334 C 32.276 98.023,32.921 246.106,34.697 257.026 C 38.265 278.972,49.491 292.009,69.349 297.268 C 77.562 299.442,80.935 299.632,115.534 299.862 L 148.818 300.084 166.284 328.155 C 187.297 361.927,187.885 362.619,196.875 364.166 C 206.151 365.761,212.588 361.957,219.576 350.750 C 221.634 347.450,229.592 334.700,237.259 322.417 L 251.201 300.084 284.475 299.862 C 323.347 299.603,326.236 299.340,337.293 295.047 C 353.118 288.901,362.757 275.545,365.471 256.000 C 367.102 244.250,367.604 96.950,366.063 82.334 C 363.025 53.530,349.723 38.728,323.262 34.705 C 313.004 33.146,134.203 32.238,93.500 33.538 M318.967 68.171 C 328.109 70.043,329.973 71.916,331.825 81.092 C 332.863 86.230,333.486 228.635,332.537 243.502 C 331.079 266.325,332.076 265.913,277.000 266.439 L 241.750 266.776 238.250 268.210 C 229.218 271.910,227.614 273.763,212.536 297.926 C 205.818 308.692,200.177 317.500,200.000 317.500 C 199.823 317.500,194.189 308.720,187.480 297.989 C 166.894 265.062,170.822 266.960,122.250 266.459 C 68.414 265.903,69.045 266.153,67.511 244.750 C 66.880 235.960,66.857 97.827,67.484 88.745 C 68.657 71.758,71.091 69.044,86.504 67.538 C 95.842 66.626,314.326 67.221,318.967 68.171 M113.557 133.564 C 97.415 136.245,94.902 158.381,109.940 165.432 L 112.750 166.750 200.011 166.750 L 287.271 166.750 290.572 165.125 C 305.419 157.816,302.243 136.171,285.935 133.524 C 281.930 132.875,117.482 132.912,113.557 133.564 M113.557 183.564 C 97.415 186.245,94.902 208.381,109.940 215.432 L 112.750 216.750 164.500 216.898 C 200.502 217.000,217.223 216.878,219.449 216.495 C 238.015 213.303,238.004 186.537,219.435 183.524 C 215.461 182.880,117.458 182.916,113.557 183.564 " stroke="none" fill="#000000" fill-rule="evenodd"></path></g></svg>