<svg id="svg" xmlns="http://www.w3.org/2000/svg" xmlns:xlink="http://www.w3.org/1999/xlink" width="400" height="400" viewBox="0, 0, 400,400"><g id="svgg"><path id="path0" d="M40.652 26.721 C 34.809 28.964,28.898 34.953,26.683 40.874 C 24.087 47.811,24.082 102.177,26.677 109.111 C 28.699 114.515,33.646 120.046,38.825 122.692 L 42.578 124.609 142.188 124.807 C 240.495 125.002,241.830 124.984,244.343 123.447 C 248.529 120.886,250.128 117.567,249.820 112.076 C 249.308 102.920,245.214 100.000,232.890 100.000 L 225.000 100.000 225.000 75.000 L 225.000 50.000 249.507 50.000 L 274.014 50.000 274.374 58.099 C 274.919 70.344,278.516 75.003,287.420 74.997 C 297.694 74.990,300.153 70.965,299.827 54.688 C 299.493 38.011,295.525 30.947,284.087 26.668 L 279.629 25.000 162.275 25.041 C 45.018 25.081,44.918 25.083,40.652 26.721 M100.000 75.000 L 100.000 100.000 75.391 100.000 L 50.781 100.000 50.781 75.000 L 50.781 50.000 75.391 50.000 L 100.000 50.000 100.000 75.000 M200.000 75.000 L 200.000 100.000 162.891 100.000 L 125.781 100.000 125.781 75.000 L 125.781 50.000 162.891 50.000 L 200.000 50.000 200.000 75.000 M382.813 100.081 C 381.738 100.501,370.931 110.757,358.796 122.871 L 336.733 144.898 315.437 123.707 C 292.425 100.810,290.890 99.626,284.969 100.195 C 278.400 100.826,274.222 105.553,274.220 112.356 C 274.218 117.393,274.278 117.466,297.531 140.814 L 319.117 162.487 297.496 184.173 C 285.604 196.101,275.502 206.849,275.047 208.059 C 271.836 216.588,277.360 224.990,286.184 224.997 C 291.666 225.001,291.443 225.181,315.039 201.681 L 336.719 180.088 358.789 202.071 C 382.841 226.028,382.536 225.781,388.114 225.781 C 397.045 225.781,402.779 216.382,398.742 208.360 C 398.050 206.984,387.775 196.103,375.909 184.180 L 354.334 162.500 376.339 140.430 C 388.442 128.291,398.717 117.370,399.172 116.160 C 402.972 106.063,392.881 96.145,382.813 100.081 M40.652 201.721 C 34.809 203.964,28.898 209.953,26.683 215.874 C 24.041 222.935,24.036 352.051,26.677 359.111 C 28.699 364.515,33.646 370.046,38.825 372.692 L 42.578 374.609 162.500 374.609 L 282.422 374.609 286.090 372.803 C 290.771 370.497,295.497 365.771,297.803 361.090 L 299.609 357.422 299.817 308.203 C 300.051 252.719,300.320 255.360,294.059 251.771 C 283.686 245.824,275.151 252.338,274.415 266.765 L 273.994 275.000 249.497 275.000 L 225.000 275.000 225.000 250.000 L 225.000 225.000 233.398 224.997 C 240.400 224.995,242.220 224.736,244.343 223.442 C 252.343 218.564,251.807 205.233,243.452 201.268 C 238.710 199.018,46.576 199.447,40.652 201.721 M100.000 250.000 L 100.000 275.000 75.391 275.000 L 50.781 275.000 50.781 250.000 L 50.781 225.000 75.391 225.000 L 100.000 225.000 100.000 250.000 M200.000 250.000 L 200.000 275.000 162.891 275.000 L 125.781 275.000 125.781 250.000 L 125.781 225.000 162.891 225.000 L 200.000 225.000 200.000 250.000 M100.000 325.000 L 100.000 350.000 75.391 350.000 L 50.781 350.000 50.781 325.000 L 50.781 300.000 75.391 300.000 L 100.000 300.000 100.000 325.000 M200.000 325.000 L 200.000 350.000 162.891 350.000 L 125.781 350.000 125.781 325.000 L 125.781 300.000 162.891 300.000 L 200.000 300.000 200.000 325.000 M274.219 325.000 L 274.219 350.000 249.609 350.000 L 225.000 350.000 225.000 325.000 L 225.000 300.000 249.609 300.000 L 274.219 300.000 274.219 325.000 " stroke="none" fill="#000000" fill-rule="evenodd"></path></g></svg>