<svg id="svg" xmlns="http://www.w3.org/2000/svg" xmlns:xlink="http://www.w3.org/1999/xlink" width="400" height="400" viewBox="0, 0, 400,400"><g id="svgg"><path id="path0" d="M79.500 17.115 C 74.801 18.340,75.895 17.362,47.234 45.960 C 15.524 77.599,17.182 75.547,17.182 83.167 C 17.182 95.952,29.873 103.576,41.486 97.767 C 42.736 97.142,46.178 93.927,54.917 85.224 L 66.667 73.521 66.667 200.000 L 66.667 326.479 54.917 314.776 C 40.701 300.618,39.812 300.044,32.688 300.417 C 19.854 301.088,12.566 315.416,19.657 326.035 C 22.017 329.569,73.697 380.518,76.000 381.581 C 81.084 383.927,85.843 383.885,91.000 381.446 C 93.276 380.370,144.803 329.260,147.043 325.857 C 154.238 314.924,146.321 300.333,133.192 300.333 C 126.546 300.333,125.636 300.946,111.750 314.776 L 100.000 326.479 100.000 200.000 L 100.000 73.521 111.750 85.224 C 120.441 93.879,123.934 97.143,125.167 97.759 C 140.097 105.223,155.202 90.121,147.763 75.167 C 146.800 73.230,94.980 21.047,92.306 19.322 C 88.873 17.106,83.253 16.137,79.500 17.115 M179.445 92.141 C 173.466 93.591,168.287 98.930,167.035 104.933 C 166.792 106.098,166.667 112.927,166.667 125.000 C 166.667 147.769,166.809 148.576,171.679 153.382 C 178.391 160.004,188.396 159.996,195.030 153.363 C 199.377 149.015,200.000 146.608,200.000 134.150 L 200.000 125.000 225.000 125.000 L 250.000 125.000 250.000 200.000 L 250.000 275.000 232.516 275.000 C 210.726 275.000,209.876 275.153,205.013 279.952 C 195.629 289.211,200.361 305.274,213.266 307.965 C 215.760 308.485,317.574 308.485,320.067 307.965 C 332.946 305.279,337.684 289.292,328.363 279.970 C 323.565 275.172,322.610 275.000,300.817 275.000 L 283.333 275.000 283.333 200.000 L 283.333 125.000 308.333 125.000 L 333.333 125.000 333.333 134.150 C 333.333 146.608,333.956 149.015,338.304 153.363 C 347.635 162.694,363.610 157.960,366.298 145.067 C 366.921 142.083,366.798 106.984,366.157 104.487 C 364.547 98.217,359.521 93.311,353.400 92.035 C 350.689 91.470,181.789 91.572,179.445 92.141 " stroke="none" fill="#000000" fill-rule="evenodd"></path></g></svg>