<svg id="svg" version="1.1" width="400" height="400" xmlns="http://www.w3.org/2000/svg" xmlns:xlink="http://www.w3.org/1999/xlink" ><g id="svgg"><path id="path0" d="M60.000 71.951 C 60.000 134.704,60.786 139.615,72.430 149.665 C 84.954 160.474,78.188 160.000,220.000 160.000 C 361.812 160.000,355.046 160.474,367.570 149.665 C 379.214 139.615,380.000 134.704,380.000 71.951 L 380.000 20.000 358.500 20.000 L 337.000 20.000 337.000 68.500 L 337.000 117.000 220.000 117.000 L 103.000 117.000 103.000 68.500 L 103.000 20.000 81.500 20.000 L 60.000 20.000 60.000 71.951 M14.341 179.702 C 9.406 182.162,8.816 186.012,9.182 213.364 L 9.500 237.167 12.766 240.084 C 18.492 245.197,20.849 244.533,43.500 231.423 C 77.908 211.509,77.910 209.574,43.532 189.962 C 21.878 177.609,19.921 176.921,14.341 179.702 M88.095 197.089 C 79.125 200.675,77.008 215.472,84.405 222.875 L 88.028 226.500 104.014 226.819 L 120.000 227.138 120.000 211.569 L 120.000 196.000 105.250 196.063 C 97.138 196.098,89.418 196.560,88.095 197.089 M147.000 211.500 L 147.000 227.000 168.500 227.000 L 190.000 227.000 190.000 211.500 L 190.000 196.000 168.500 196.000 L 147.000 196.000 147.000 211.500 M217.000 211.500 L 217.000 227.000 237.000 227.000 L 257.000 227.000 257.000 211.500 L 257.000 196.000 237.000 196.000 L 217.000 196.000 217.000 211.500 M284.000 211.538 L 284.000 227.076 317.985 226.788 L 351.969 226.500 355.593 222.875 C 363.132 215.334,360.848 200.554,351.602 197.039 C 349.916 196.398,336.444 196.000,316.435 196.000 L 284.000 196.000 284.000 211.538 M85.300 257.855 C 75.294 261.326,68.289 267.716,63.214 278.000 L 60.500 283.500 60.214 331.750 L 59.927 380.000 81.964 380.000 L 104.000 380.000 104.000 340.000 L 104.000 300.000 220.000 300.000 L 336.000 300.000 336.000 340.000 L 336.000 380.000 358.036 380.000 L 380.073 380.000 379.786 331.750 L 379.500 283.500 376.560 277.513 C 372.816 269.887,366.113 263.184,358.487 259.440 L 352.500 256.500 221.500 256.275 C 97.487 256.062,90.223 256.146,85.300 257.855 " stroke="none" fill="#000000" fill-rule="evenodd"></path></g></svg>