<?xml version="1.0" standalone="no"?>
<!DOCTYPE svg PUBLIC "-//W3C//DTD SVG 20010904//EN"
 "http://www.w3.org/TR/2001/REC-SVG-20010904/DTD/svg10.dtd">
<svg version="1.0" xmlns="http://www.w3.org/2000/svg"
 width="400.000000pt" height="400.000000pt" viewBox="0 0 400.000000 400.000000"
 preserveAspectRatio="xMidYMid meet">
<g transform="translate(0.000000,400.000000) scale(0.100000,-0.100000)"
fill="#000000" stroke="none">
<path d="M294 3687 c-2 -7 -4 -54 -2 -103 l3 -89 100 0 100 0 0 100 0 100 -98
3 c-75 2 -99 0 -103 -11z"/>
<path d="M694 3687 c-2 -7 -4 -54 -2 -103 l3 -89 100 0 100 0 0 100 0 100 -98
3 c-75 2 -99 0 -103 -11z"/>
<path d="M1094 3687 c-2 -7 -4 -54 -2 -103 l3 -89 100 0 100 0 0 100 0 100
-98 3 c-75 2 -99 0 -103 -11z"/>
<path d="M1494 3687 c-2 -7 -4 -54 -2 -103 l3 -89 100 0 100 0 0 100 0 100
-98 3 c-75 2 -99 0 -103 -11z"/>
<path d="M1894 3687 c-2 -7 -4 -54 -2 -103 l3 -89 100 0 100 0 0 100 0 100
-98 3 c-75 2 -99 0 -103 -11z"/>
<path d="M2294 3687 c-2 -7 -4 -54 -2 -103 l3 -89 100 0 100 0 0 100 0 100
-98 3 c-75 2 -99 0 -103 -11z"/>
<path d="M2694 3687 c-2 -7 -4 -54 -2 -103 l3 -89 100 0 100 0 0 100 0 100
-98 3 c-75 2 -99 0 -103 -11z"/>
<path d="M3094 3687 c-2 -7 -4 -54 -2 -103 l3 -89 100 0 100 0 0 100 0 100
-98 3 c-75 2 -99 0 -103 -11z"/>
<path d="M3494 3687 c-2 -7 -4 -54 -2 -103 l3 -89 100 0 100 0 0 100 0 100
-98 3 c-75 2 -99 0 -103 -11z"/>
<path d="M294 3287 c-2 -7 -4 -54 -2 -103 l3 -89 100 0 100 0 0 100 0 100 -98
3 c-75 2 -99 0 -103 -11z"/>
<path d="M3494 3287 c-2 -7 -4 -54 -2 -103 l3 -89 100 0 100 0 0 100 0 100
-98 3 c-75 2 -99 0 -103 -11z"/>
<path d="M294 2887 c-2 -7 -4 -54 -2 -103 l3 -89 100 0 100 0 0 100 0 100 -98
3 c-75 2 -99 0 -103 -11z"/>
<path d="M3494 2887 c-2 -7 -4 -54 -2 -103 l3 -89 100 0 100 0 0 100 0 100
-98 3 c-75 2 -99 0 -103 -11z"/>
<path d="M294 2487 c-2 -7 -4 -54 -2 -103 l3 -89 100 0 100 0 0 100 0 100 -98
3 c-75 2 -99 0 -103 -11z"/>
<path d="M3494 2487 c-2 -7 -4 -54 -2 -103 l3 -89 100 0 100 0 0 100 0 100
-98 3 c-75 2 -99 0 -103 -11z"/>
<path d="M294 2087 c-2 -7 -4 -54 -2 -103 l3 -89 100 0 100 0 0 100 0 100 -98
3 c-75 2 -99 0 -103 -11z"/>
<path d="M3494 2087 c-2 -7 -4 -54 -2 -103 l3 -89 100 0 100 0 0 100 0 100
-98 3 c-75 2 -99 0 -103 -11z"/>
<path d="M294 1687 c-2 -7 -4 -54 -2 -103 l3 -89 100 0 100 0 0 100 0 100 -98
3 c-75 2 -99 0 -103 -11z"/>
<path d="M3494 1687 c-2 -7 -4 -54 -2 -103 l3 -89 100 0 100 0 0 100 0 100
-98 3 c-75 2 -99 0 -103 -11z"/>
<path d="M300 1293 c-1 -2 -1 -226 -1 -498 l-1 -496 1697 0 1697 0 0 496 0
495 -1696 3 c-933 1 -1696 1 -1696 0z m3200 -498 l0 -305 -1505 0 -1505 0 0
305 0 305 1505 0 1505 0 0 -305z"/>
<path d="M793 884 c-2 -6 -3 -50 -1 -98 l3 -87 800 0 800 0 0 96 0 96 -799 2
c-564 1 -800 -1 -803 -9z"/>
<path d="M2793 884 c-2 -6 -3 -51 -1 -99 l3 -89 200 0 200 0 0 99 0 99 -199 0
c-133 1 -200 -3 -203 -10z"/>
</g>
</svg>
