<svg version="1.0" xmlns="http://www.w3.org/2000/svg" width="200.000000pt" height="200.000000pt" viewBox="0 0 200.000000 200.000000" preserveAspectRatio="xMidYMid meet" style="width: 255px; height: auto;"> <g transform="translate(0.000000,200.000000) scale(0.100000,-0.100000)" fill="#000000" stroke="none"> <path d="M150 1600 l0 -250 850 0 850 0 0 250 0 250 -850 0 -850 0 0 -250z m1600 0 l0 -150 -750 0 -750 0 0 150 0 150 750 0 750 0 0 -150z"></path> <path d="M400 1600 l0 -50 100 0 100 0 0 50 0 50 -100 0 -100 0 0 -50z"></path> <path d="M800 1600 l0 -50 400 0 400 0 0 50 0 50 -400 0 -400 0 0 -50z"></path> <path d="M150 1200 l0 -50 50 0 50 0 0 50 0 50 -50 0 -50 0 0 -50z"></path> <path d="M1750 1200 l0 -50 50 0 50 0 0 50 0 50 -50 0 -50 0 0 -50z"></path> <path d="M150 1000 l0 -50 50 0 50 0 0 50 0 50 -50 0 -50 0 0 -50z"></path> <path d="M1750 1000 l0 -50 50 0 50 0 0 50 0 50 -50 0 -50 0 0 -50z"></path> <path d="M150 800 l0 -50 50 0 50 0 0 50 0 50 -50 0 -50 0 0 -50z"></path> <path d="M1750 800 l0 -50 50 0 50 0 0 50 0 50 -50 0 -50 0 0 -50z"></path> <path d="M150 600 l0 -50 50 0 50 0 0 50 0 50 -50 0 -50 0 0 -50z"></path> <path d="M1750 600 l0 -50 50 0 50 0 0 50 0 50 -50 0 -50 0 0 -50z"></path> <path d="M150 400 l0 -50 50 0 50 0 0 50 0 50 -50 0 -50 0 0 -50z"></path> <path d="M1750 400 l0 -50 50 0 50 0 0 50 0 50 -50 0 -50 0 0 -50z"></path> <path d="M150 200 l0 -50 50 0 50 0 0 50 0 50 -50 0 -50 0 0 -50z"></path> <path d="M350 200 l0 -50 50 0 50 0 0 50 0 50 -50 0 -50 0 0 -50z"></path> <path d="M550 200 l0 -50 50 0 50 0 0 50 0 50 -50 0 -50 0 0 -50z"></path> <path d="M750 200 l0 -50 50 0 50 0 0 50 0 50 -50 0 -50 0 0 -50z"></path> <path d="M950 200 l0 -50 50 0 50 0 0 50 0 50 -50 0 -50 0 0 -50z"></path> <path d="M1150 200 l0 -50 50 0 50 0 0 50 0 50 -50 0 -50 0 0 -50z"></path> <path d="M1350 200 l0 -50 50 0 50 0 0 50 0 50 -50 0 -50 0 0 -50z"></path> <path d="M1550 200 l0 -50 50 0 50 0 0 50 0 50 -50 0 -50 0 0 -50z"></path> <path d="M1750 200 l0 -50 50 0 50 0 0 50 0 50 -50 0 -50 0 0 -50z"></path> </g> </svg>