<?xml version="1.0" standalone="no"?>
<!DOCTYPE svg PUBLIC "-//W3C//DTD SVG 20010904//EN"
 "http://www.w3.org/TR/2001/REC-SVG-20010904/DTD/svg10.dtd">
<svg version="1.0" xmlns="http://www.w3.org/2000/svg"
 width="600.000000pt" height="600.000000pt" viewBox="0 0 600.000000 600.000000"
 preserveAspectRatio="xMidYMid meet">
<g transform="translate(0.000000,600.000000) scale(0.050000,-0.050000)"
fill="#000000" stroke="none">
<path d="M5700 11638 c-202 -81 -226 -166 -239 -845 l-11 -576 -74 -68 c-146
-133 -267 -119 -445 52 -305 293 -681 193 -681 -180 0 -192 22 -216 1095
-1244 509 -487 517 -486 1205 211 856 866 924 967 808 1206 -114 236 -356 262
-619 65 -166 -124 -277 -137 -411 -50 -104 68 -114 123 -122 641 -9 577 -11
592 -92 683 -102 117 -274 160 -414 105z"/>
<path d="M9638 7533 c-4 -4 -705 -13 -1558 -20 -852 -8 -1662 -18 -1800 -23
-137 -5 -821 -15 -1520 -21 -2896 -24 -3810 -43 -3876 -77 -214 -111 -267
-522 -94 -729 109 -129 41 -124 1552 -103 752 10 2174 28 3158 40 3630 42
4992 61 5056 71 315 52 384 661 94 831 -55 32 -978 60 -1012 31z"/>
<path d="M8718 5651 c-5 -5 -981 -19 -2169 -30 -1187 -11 -2181 -25 -2209 -30
-27 -6 -603 -12 -1280 -13 -1493 -4 -2134 -23 -2219 -68 -239 -123 -228 -708
16 -809 66 -27 1196 -23 4633 18 902 11 2401 28 3330 38 1860 21 1800 16 1908
145 161 191 132 570 -55 703 -60 43 -1915 87 -1955 46z"/>
<path d="M9597 3930 c-6 -5 -874 -19 -1929 -30 -6254 -64 -6763 -73 -6842
-132 -218 -162 -213 -654 8 -790 l72 -45 2012 25 c1107 13 2786 33 3732 44
4158 50 3914 45 3985 84 272 148 263 669 -14 809 -85 43 -986 74 -1024 35z"/>
</g>
</svg>
