<svg id="svg" xmlns="http://www.w3.org/2000/svg" xmlns:xlink="http://www.w3.org/1999/xlink" width="400" height="400" viewBox="0, 0, 400,400"><g id="svgg"><path id="path0" d="M187.529 46.251 C 182.355 48.169,178.496 52.819,177.887 57.870 C 177.770 58.838,177.508 59.630,177.305 59.630 C 177.064 59.630,176.997 63.543,177.112 70.926 C 177.209 77.139,177.228 82.222,177.154 82.222 C 177.081 82.222,175.719 81.005,174.128 79.517 C 170.037 75.691,164.132 74.036,160.117 75.588 C 159.543 75.810,158.789 76.049,158.440 76.120 C 149.958 77.837,145.405 93.376,151.662 99.255 C 152.144 99.708,152.460 100.286,152.363 100.539 C 152.195 100.976,169.975 118.556,170.870 118.838 C 171.104 118.912,172.963 120.587,175.000 122.560 C 185.631 132.858,186.718 133.577,192.037 133.843 C 194.938 133.988,200.557 132.116,201.833 130.578 C 202.097 130.260,202.526 130.000,202.786 130.000 C 203.236 130.000,225.035 107.907,227.269 105.186 C 227.854 104.473,229.707 102.319,231.386 100.399 C 233.065 98.479,234.356 96.825,234.255 96.724 C 234.154 96.623,234.326 96.152,234.637 95.678 C 234.948 95.203,235.131 94.815,235.045 94.815 C 234.958 94.815,235.108 94.082,235.378 93.186 C 235.923 91.373,235.849 87.768,235.234 86.204 C 235.013 85.644,234.918 85.185,235.022 85.185 C 235.126 85.185,235.003 84.810,234.749 84.352 C 234.495 83.894,234.325 83.387,234.371 83.226 C 234.596 82.437,227.907 76.437,226.111 75.817 C 220.410 73.849,214.327 74.799,211.315 78.127 C 210.945 78.537,210.484 78.774,210.291 78.655 C 210.098 78.535,209.453 78.904,208.859 79.473 L 207.778 80.509 207.766 70.903 C 207.753 59.537,207.455 56.723,205.929 53.524 C 202.893 47.164,194.267 43.754,187.529 46.251 M174.630 157.394 C 60.969 158.496,70.145 158.226,66.055 160.584 C 58.202 165.111,56.897 177.309,63.553 183.971 C 66.890 187.309,68.683 187.896,76.111 188.077 C 86.177 188.323,315.411 186.320,318.897 185.956 C 334.222 184.354,337.907 164.278,324.120 157.505 L 322.037 156.481 300.000 156.437 C 287.880 156.412,231.463 156.843,174.630 157.394 M174.074 226.281 C 71.320 227.272,70.162 227.291,68.086 228.047 C 55.522 232.621,54.578 249.848,66.566 255.778 C 68.642 256.804,68.903 256.839,75.556 256.977 C 87.974 257.234,316.714 255.188,319.423 254.795 C 334.304 252.638,337.538 232.988,324.074 226.526 L 321.667 225.370 299.815 225.325 C 287.796 225.300,231.213 225.731,174.074 226.281 M174.815 295.172 C 60.970 296.276,70.140 296.007,66.055 298.361 C 58.202 302.888,56.897 315.087,63.553 321.748 C 66.889 325.087,68.683 325.674,76.111 325.856 C 87.272 326.129,316.680 324.082,319.423 323.684 C 334.304 321.527,337.538 301.877,324.074 295.415 L 321.667 294.259 300.000 294.214 C 288.083 294.189,231.750 294.621,174.815 295.172 " stroke="none" fill="#000000" fill-rule="evenodd"></path></g></svg>