<svg id="svg" xmlns="http://www.w3.org/2000/svg" xmlns:xlink="http://www.w3.org/1999/xlink" width="400" height="400" viewBox="0, 0, 400,400"><g id="svgg"><path id="path0" d="M33.903 17.505 C 26.486 19.848,19.725 26.720,17.471 34.209 C 15.606 40.407,15.974 119.696,17.887 123.828 C 22.852 134.551,37.136 136.923,45.617 128.432 C 50.015 124.029,50.000 124.178,50.000 85.572 L 50.000 50.000 100.000 50.000 L 150.000 50.000 150.000 116.406 L 150.000 182.813 112.322 182.813 L 74.644 182.812 81.040 176.367 C 93.099 164.214,92.980 151.180,80.756 145.262 C 70.078 140.093,66.945 141.900,40.468 168.496 C 7.693 201.417,7.638 198.952,41.902 232.870 C 68.589 259.287,70.116 260.158,80.519 254.883 C 92.912 248.598,93.271 236.372,81.424 224.082 L 74.777 217.187 112.389 217.188 L 150.000 217.188 150.000 283.594 L 150.000 350.000 100.000 350.000 L 50.000 350.000 50.000 314.428 C 50.000 275.822,50.015 275.971,45.617 271.568 C 36.661 262.602,20.612 266.184,17.178 277.917 C 16.583 279.947,16.391 293.934,16.557 323.047 L 16.797 365.234 18.709 369.120 C 21.148 374.077,25.923 378.852,30.880 381.291 L 34.766 383.203 100.000 383.203 L 165.234 383.203 169.120 381.291 C 174.077 378.852,178.852 374.077,181.291 369.120 L 183.203 365.234 183.203 200.000 L 183.203 34.766 181.291 30.880 C 178.852 25.923,174.077 21.148,169.120 18.709 L 165.234 16.797 101.172 16.645 C 50.539 16.525,36.437 16.705,33.903 17.505 M233.903 17.505 C 226.255 19.921,219.044 27.544,217.205 35.156 C 216.605 37.645,216.421 86.386,216.577 201.953 L 216.797 365.234 218.709 369.120 C 221.148 374.077,225.923 378.852,230.880 381.291 L 234.766 383.203 300.000 383.203 L 365.234 383.203 369.120 381.291 C 374.077 378.852,378.852 374.077,381.291 369.120 L 383.203 365.234 383.443 323.047 C 383.609 293.934,383.417 279.947,382.822 277.917 C 379.388 266.184,363.339 262.602,354.383 271.568 C 349.985 275.971,350.000 275.822,350.000 314.428 L 350.000 350.000 300.000 350.000 L 250.000 350.000 250.000 283.594 L 250.000 217.188 287.678 217.188 L 325.356 217.188 318.960 223.633 C 311.835 230.813,310.148 233.958,310.173 240.014 C 310.227 253.014,323.407 260.763,335.120 254.681 C 339.274 252.524,380.910 210.398,382.384 206.861 C 383.800 203.461,383.934 198.538,382.729 194.141 C 381.723 190.471,341.337 149.111,335.228 145.495 C 324.454 139.118,311.013 146.554,310.294 159.290 C 309.905 166.171,310.914 168.149,319.008 176.367 L 325.356 182.812 287.678 182.812 L 250.000 182.813 250.000 116.406 L 250.000 50.000 300.000 50.000 L 350.000 50.000 350.000 85.572 C 350.000 124.178,349.985 124.029,354.383 128.432 C 363.339 137.398,379.388 133.816,382.822 122.083 C 383.417 120.053,383.609 106.066,383.443 76.953 L 383.203 34.766 381.291 30.880 C 378.852 25.923,374.077 21.148,369.120 18.709 L 365.234 16.797 301.172 16.645 C 250.539 16.525,236.437 16.705,233.903 17.505 " stroke="none" fill="#000000" fill-rule="evenodd"></path></g></svg>